<?xml version="1.0"?>
<svg width="326.05" height="326.05" xmlns="http://www.w3.org/2000/svg" xmlns:svg="http://www.w3.org/2000/svg" version="1.1" xml:space="preserve">
 <g class="layer">
  <title>Layer 1</title>
  <g id="svg_1" transform="translate(1 0) translate(0 -1) translate(-1 0) translate(-1 0) translate(-1 0) translate(-1 0) translate(6 -3) translate(44.9285 284.159) matrix(0.703318 0 0 0.703318 0.938554 -230.281)">
   <path d="m14.26,275.6c-31.31,-55.21 -10.01,-141.8 54.76,-206.59c73.56,-73.54 175.26,-91.08 227.18,-39.16c0.07,0.07 0.12,0.14 0.2,0.21c-10.39,30.24 -43.49,94.57 -142.69,129.35c-90.87,31.88 -125.92,82.56 -139.45,116.19zm296.55,-226.85c-7.87,18.36 -21.57,42.36 -45.17,65.96c-23.73,23.73 -57.45,47.04 -105.21,63.8c-96.94,33.99 -124.02,89.64 -131.58,116.61c0.35,0.36 0.66,0.73 1.01,1.08c51.92,51.92 153.63,34.39 227.17,-39.17c65.45,-65.44 86.5,-153.16 53.78,-208.28z" id="svg_2"/>
  </g>
 </g>
</svg>